<?xml version="1.0" encoding="UTF-8" standalone="no"?>
<!-- Created with Inkscape (http://www.inkscape.org/) -->

<svg
   width="1000"
   height="1000"
   viewBox="0 0 264.58333 264.58333"
   version="1.1"
   id="svg5"
   xml:space="preserve"
   inkscape:version="1.2.2 (b0a8486541, 2022-12-01)"
   sodipodi:docname="ReywenLogo.svg"
   inkscape:export-filename="ReywenLogo.jpg"
   inkscape:export-xdpi="96"
   inkscape:export-ydpi="96"
   xmlns:inkscape="http://www.inkscape.org/namespaces/inkscape"
   xmlns:sodipodi="http://sodipodi.sourceforge.net/DTD/sodipodi-0.dtd"
   xmlns="http://www.w3.org/2000/svg"
   xmlns:svg="http://www.w3.org/2000/svg"><sodipodi:namedview
     id="namedview7"
     pagecolor="#505050"
     bordercolor="#ffffff"
     borderopacity="1"
     inkscape:showpageshadow="0"
     inkscape:pageopacity="0"
     inkscape:pagecheckerboard="1"
     inkscape:deskcolor="#505050"
     inkscape:document-units="mm"
     showgrid="false"
     inkscape:zoom="0.42245027"
     inkscape:cx="607.17206"
     inkscape:cy="524.32207"
     inkscape:window-width="1128"
     inkscape:window-height="708"
     inkscape:window-x="0"
     inkscape:window-y="0"
     inkscape:window-maximized="1"
     inkscape:current-layer="layer1" /><defs
     id="defs2"><filter
       style="color-interpolation-filters:sRGB;"
       inkscape:label="Drop Shadow"
       id="filter3248"
       x="-0.34379254"
       y="-0.18642779"
       width="1.7986885"
       height="1.4331034"><feFlood
         flood-opacity="0.87451"
         flood-color="rgb(0,0,0)"
         result="flood"
         id="feFlood3238" /><feComposite
         in="flood"
         in2="SourceGraphic"
         operator="in"
         result="composite1"
         id="feComposite3240" /><feGaussianBlur
         in="composite1"
         stdDeviation="7.73587"
         result="blur"
         id="feGaussianBlur3242" /><feOffset
         dx="6"
         dy="6"
         result="offset"
         id="feOffset3244" /><feComposite
         in="SourceGraphic"
         in2="offset"
         operator="over"
         result="composite2"
         id="feComposite3246" /></filter><filter
       style="color-interpolation-filters:sRGB;"
       inkscape:label="Drop Shadow"
       id="filter3260"
       x="-0.1359874"
       y="-0.03634974"
       width="1.3159218"
       height="1.0844466"><feFlood
         flood-opacity="0.87451"
         flood-color="rgb(0,0,0)"
         result="flood"
         id="feFlood3250" /><feComposite
         in="flood"
         in2="SourceGraphic"
         operator="in"
         result="composite1"
         id="feComposite3252" /><feGaussianBlur
         in="composite1"
         stdDeviation="7.73587"
         result="blur"
         id="feGaussianBlur3254" /><feOffset
         dx="6"
         dy="6"
         result="offset"
         id="feOffset3256" /><feComposite
         in="SourceGraphic"
         in2="offset"
         operator="over"
         result="composite2"
         id="feComposite3258" /></filter><filter
       style="color-interpolation-filters:sRGB;"
       inkscape:label="Drop Shadow"
       id="filter3272"
       x="-0.14866735"
       y="-0.1073238"
       width="1.3453795"
       height="1.2493314"><feFlood
         flood-opacity="0.87451"
         flood-color="rgb(0,0,0)"
         result="flood"
         id="feFlood3262" /><feComposite
         in="flood"
         in2="SourceGraphic"
         operator="in"
         result="composite1"
         id="feComposite3264" /><feGaussianBlur
         in="composite1"
         stdDeviation="7.73587"
         result="blur"
         id="feGaussianBlur3266" /><feOffset
         dx="6"
         dy="6"
         result="offset"
         id="feOffset3268" /><feComposite
         in="SourceGraphic"
         in2="offset"
         operator="over"
         result="composite2"
         id="feComposite3270" /></filter><filter
       style="color-interpolation-filters:sRGB;"
       inkscape:label="Drop Shadow"
       id="filter3284"
       x="-0.26023521"
       y="-0.23068227"
       width="1.6045706"
       height="1.5359141"><feFlood
         flood-opacity="0.87451"
         flood-color="rgb(0,0,0)"
         result="flood"
         id="feFlood3274" /><feComposite
         in="flood"
         in2="SourceGraphic"
         operator="in"
         result="composite1"
         id="feComposite3276" /><feGaussianBlur
         in="composite1"
         stdDeviation="7.73587"
         result="blur"
         id="feGaussianBlur3278" /><feOffset
         dx="6"
         dy="6"
         result="offset"
         id="feOffset3280" /><feComposite
         in="SourceGraphic"
         in2="offset"
         operator="over"
         result="composite2"
         id="feComposite3282" /></filter></defs><g
     inkscape:label="Layer 1"
     inkscape:groupmode="layer"
     id="layer1"><path
       style="fill:#f74e00;fill-opacity:1;stroke-width:0.213822;filter:url(#filter3248)"
       d="m 112.58153,115.22076 c 0,0 -11.89564,15.00857 -9.14228,23.78618 3.93435,12.54256 24.01465,25.68931 27.53025,33.16815 4.93849,10.50574 -6.01717,39.39271 -14.60724,42.40568 -9.682,3.39595 -38.127391,-31.82344 -38.16583,-53.66569 -0.08011,-45.52066 34.3851,-45.69432 34.3851,-45.69432 z"
       id="path1253"
       sodipodi:nodetypes="cssssc" /><g
       id="g358"
       transform="matrix(0.28176979,-0.38491547,0.38096119,0.28437424,-36.30611,147.70745)"
       style="fill:#919191;fill-opacity:1;stroke:none;filter:url(#filter3260)"><g
         id="g301"
         style="fill:#919191;fill-opacity:1;stroke:none">
	<g
   id="g299"
   style="fill:#919191;fill-opacity:1;stroke:none">
		<g
   id="g297"
   style="fill:#919191;fill-opacity:1;stroke:none">
			<path
   d="m 255.377,391.297 c -32.939,0 -59.733,26.795 -59.733,59.733 0,32.939 26.795,59.733 59.733,59.733 32.938,0 59.733,-26.795 59.733,-59.733 0,-32.939 -26.795,-59.733 -59.733,-59.733 z"
   id="path293"
   style="fill:#919191;fill-opacity:1;stroke:none"
   sodipodi:nodetypes="sssss" />
			<path
   d="m 221.246,229.168 0,51.2 c -14.42019,158.53296 68.97116,78.82657 68.268,-0.002 v -51.2 c 0,-44.032 0.756,-82.89063 16.563,-116.548 7.13931,-15.201523 17.57,-28.561 17.57,-45.585 0,-20.642 -9.207,-39.953 -25.267,-53 -2.244,-1.826 -6.10912,-3.927322 -8.83912,-3.039322 -2.756,0.896 -4.02888,4.669322 -4.77988,7.460322 L 277.16128,67.206147 242.77807,61.415777 251.489,10.758 C 252.257,7.899 252.83531,3.516739 250.80431,1.357739 248.78231,-0.80126103 244.423,-0.421 241.522,0.176 c -36.105,7.45 -59.571,41.984 -53.427,78.618 2.176,12.962 11.54499,22.44224 16.631,33.997 14.98158,34.03619 16.52,72.422 16.52,116.377 z"
   id="path295"
   style="fill:#919191;fill-opacity:1;stroke:none"
   sodipodi:nodetypes="sccssscccccccccss" />
		</g>
	</g>
</g><g
         id="g303"
         style="fill:#919191;fill-opacity:1;stroke:none">
</g><g
         id="g305"
         style="fill:#919191;fill-opacity:1;stroke:none">
</g><g
         id="g307"
         style="fill:#919191;fill-opacity:1;stroke:none">
</g><g
         id="g309"
         style="fill:#919191;fill-opacity:1;stroke:none">
</g><g
         id="g311"
         style="fill:#919191;fill-opacity:1;stroke:none">
</g><g
         id="g313"
         style="fill:#919191;fill-opacity:1;stroke:none">
</g><g
         id="g315"
         style="fill:#919191;fill-opacity:1;stroke:none">
</g><g
         id="g317"
         style="fill:#919191;fill-opacity:1;stroke:none">
</g><g
         id="g319"
         style="fill:#919191;fill-opacity:1;stroke:none">
</g><g
         id="g321"
         style="fill:#919191;fill-opacity:1;stroke:none">
</g><g
         id="g323"
         style="fill:#919191;fill-opacity:1;stroke:none">
</g><g
         id="g325"
         style="fill:#919191;fill-opacity:1;stroke:none">
</g><g
         id="g327"
         style="fill:#919191;fill-opacity:1;stroke:none">
</g><g
         id="g329"
         style="fill:#919191;fill-opacity:1;stroke:none">
</g><g
         id="g331"
         style="fill:#919191;fill-opacity:1;stroke:none">
</g></g><path
       style="fill:#f74e00;fill-opacity:1;stroke-width:0.220614;filter:url(#filter3272)"
       d="m 114.50833,91.909947 c 1.00707,0.388799 38.62596,5.117761 37.57042,24.087953 -0.90661,16.29377 -6.15395,49.64954 -14.78592,69.18408 -12.6464,28.61943 -10.11791,43.55353 -10.11791,43.55353 9.82313,12.00671 27.28591,33.97708 62.21728,16.38387 6.98056,-3.51576 13.04741,-19.48241 13.04741,-19.48241 l 33.21922,-10.54208 -25.03793,-17.30623 1.31512,-10.08592 24.92843,-15.84657 -24.54762,-8.71139 -1.64639,-14.62282 16.5045,-10.49347 -20.58745,-7.30825 -3.97642,-11.10369 7.27424,-13.73616 -12.90502,2.37301 c 0,0 -18.61699,-26.199501 -43.11213,-29.339896 -13.90068,-1.782134 -51.98739,8.121336 -39.35983,12.996443 z"
       id="path1351"
       sodipodi:nodetypes="sssssccccccccccccss" /><path
       style="fill:#f74e00;fill-opacity:1;stroke:none;stroke-width:0.264583;filter:url(#filter3284)"
       d="m 128.97372,238.27825 c 11.29747,8.59825 17.07141,14.93759 28.12158,16.98254 12.09006,2.2374 39.45206,-9.92262 30.41994,4.41435 -14.71438,23.35659 -18.09429,57.84798 -18.09429,57.84798 l -50.49879,-13.84744 c 0,0 -5.53504,-77.26005 10.05156,-65.39743 z"
       id="path1485"
       sodipodi:nodetypes="sssccs" /></g></svg>
